<svg width="150" height="26" viewBox="0 0 150 26" fill="none" xmlns="http://www.w3.org/2000/svg">
<g clip-path="url(#clip0_24_4256)">
<path fill-rule="evenodd" clip-rule="evenodd" d="M41.488 7.05338C35.9776 7.05338 32.4525 10.7829 32.4525 16.1551C32.4525 21.597 35.9776 25.3265 41.488 25.3265C47.0325 25.3265 50.5577 21.597 50.5577 16.1551C50.5577 10.7829 47.0325 7.05338 41.488 7.05338ZM144.303 19.4071C143.345 23.0676 140.47 25.2589 136.602 25.2589C131.469 25.2589 128.354 21.4939 128.354 16.4297C128.354 11.1592 131.708 7.39559 136.671 7.39559C141.633 7.39559 144.44 11.1941 144.44 16.3272V16.9085H131.298V17.0451C131.503 20.5014 133.556 22.8627 136.534 22.8627C138.45 22.8627 140.367 21.8702 141.189 19.4071H144.303ZM97.0468 19.4071C96.0883 23.0676 93.2136 25.2589 89.3462 25.2589C84.2122 25.2589 81.0977 21.4939 81.0977 16.4297C81.0977 11.1592 84.452 7.39559 89.4145 7.39559C94.3777 7.39559 97.1834 11.1941 97.1834 16.3272V16.9085H84.0414V17.0451C84.2464 20.5014 86.3007 22.8627 89.2779 22.8627C91.1948 22.8627 93.1104 21.8702 93.9322 19.4071H97.0468ZM68.7318 18.5513C68.2871 22.4173 65.4799 25.2589 60.8597 25.2589C55.7251 25.2589 52.5429 21.4597 52.5429 16.3272C52.5429 11.1941 55.7251 7.39559 60.8597 7.39559C65.2743 7.39559 68.0466 10.0643 68.6286 13.692H65.7539C65.2743 11.468 63.7345 9.79106 60.8597 9.79106C57.3346 9.79106 55.2804 12.5622 55.2804 16.3272C55.2804 20.0909 57.3346 22.8627 60.8597 22.8627C63.9059 22.8627 65.5141 21.015 65.9247 18.5513H68.7318ZM121.464 2.29658V7.77195H127.729V10.1667H121.464V19.235C121.464 21.4597 122.662 22.6578 124.921 22.6578C125.593 22.6578 126.371 22.5676 127.205 22.2828V24.7732C126.524 24.9986 125.755 25.1216 124.921 25.1216C121.088 25.1216 118.658 22.8627 118.658 19.235V10.1667H115.064V7.77195H115.098C117.802 7.77195 118.658 7.01922 118.658 4.62307V2.29658H121.464ZM110.983 14.4789V13.7261C110.983 11.2958 109.443 9.79106 106.944 9.79106C104.583 9.79106 103.009 11.0916 102.872 13.1783H100.065C100.167 9.61893 102.803 7.39559 106.944 7.39559C111.12 7.39559 113.721 9.82522 113.721 13.7261V24.8818H110.983V22.1783H110.915C110.093 23.4788 108.005 25.0526 104.891 25.0526C101.537 25.0526 99.3121 23.1708 99.3121 20.1598C99.3121 16.9085 101.742 14.4789 108.622 14.4789H110.983ZM25.5963 7.49873V11.8785C26.5855 9.00214 28.6562 7.67769 31.7311 7.39285V12.2398C27.2079 12.1176 25.5963 14.1285 25.5963 18.3457V24.8818H20.7705V7.49873H25.5963ZM74.1889 7.77195V11.9434C75.3824 9.23301 77.6723 7.97892 80.6653 7.7016V10.7508C76.3449 10.7146 74.1889 12.83 74.1889 17.5246V24.8818H71.3825V7.77195H74.1889ZM10.7266 0.927734C15.7916 0.927734 19.0776 4.07662 19.0776 8.38807C19.0776 12.6988 15.7916 15.9509 10.7266 15.9509H5.64938V24.8818H0.275635V0.927734H10.7266ZM110.983 18.2773C110.983 20.638 108.518 22.7944 105.507 22.7944C103.385 22.7944 102.05 21.8019 102.05 20.0909C102.05 18.1749 103.557 16.6688 108.622 16.6688H110.983V18.2773ZM41.488 21.4597C38.7499 21.4597 37.1752 19.235 37.1752 16.1551C37.1752 13.1442 38.7499 10.9202 41.488 10.9202C44.2603 10.9202 45.835 13.1442 45.835 16.1551C45.835 19.235 44.2603 21.4597 41.488 21.4597ZM141.599 14.7869C141.531 11.9126 139.751 9.79106 136.637 9.79106C133.694 9.79106 131.879 11.707 131.366 14.7869H141.599ZM94.3435 14.7869C94.2752 11.9126 92.4949 9.79106 89.381 9.79106C86.4373 9.79106 84.6235 11.707 84.1104 14.7869H94.3435ZM9.90479 11.9126C12.369 11.9126 13.807 10.304 13.807 8.38807C13.807 6.53972 12.369 4.96596 9.90479 4.96596H5.64938V11.9126H9.90479ZM149.205 5.20161C149.205 7.14217 147.705 8.54654 145.874 8.54654C144.07 8.54654 142.57 7.15652 142.57 5.22962C142.57 3.30272 144.07 1.9127 145.901 1.9127C147.705 1.9127 149.205 3.28906 149.205 5.20161ZM148.599 5.21527C148.599 3.63263 147.36 2.49057 145.901 2.49057C144.428 2.49057 143.175 3.63263 143.175 5.22962C143.175 6.81226 144.414 7.95433 145.874 7.95433C147.347 7.95433 148.599 6.81226 148.599 5.21527ZM145.158 6.89491H144.538V3.42703H146.301C146.961 3.42703 147.429 3.82526 147.429 4.37648C147.429 4.84369 147.113 5.21527 146.644 5.33959L147.567 6.89491H146.837L146.066 5.39492H145.158V6.89491ZM146.301 3.96323H145.158V4.85735H146.245C146.589 4.85735 146.837 4.66541 146.837 4.38946C146.837 4.14219 146.617 3.96323 146.301 3.96323Z" fill="white"/>
</g>
<defs>
<clipPath id="clip0_24_4256">
<rect width="149" height="24.59" fill="white" transform="translate(0.240234 0.832031)"/>
</clipPath>
</defs>
</svg>
